<svg xmlns="http://www.w3.org/2000/svg" width="38" height="38" fill="none"><path fill="#000" d="M0 19C0 8.50659 8.50659 0 19 0c10.4934 0 19 8.50659 19 19 0 10.4934-8.5066 19-19 19C8.50659 38 0 29.4934 0 19Z"/><path fill="#fff" d="M26.3752 11H11.6248C10.1751 11 9 12.212 9 13.7061v7.4969c0 .1391.01022.2758.03025.4094C9.00974 21.8121 9 22.014 9 22.2178 9 26.5151 13.4769 30 18.9999 30 24.5229 30 29 26.5151 29 22.2178c0-.2039-.0107-.4057-.0303-.6054.0196-.1335.0303-.2703.0303-.4094v-7.4968C29 12.2116 27.8236 11 26.3752 11Z"/></svg>