<svg xmlns="http://www.w3.org/2000/svg" width="722" height="244" fill="none"><path fill="#4A4A4A" fill-rule="evenodd" d="M218.691 222.15c-6.629 4.313-13.309 7.968-19.936 10.92-26.179 11.661-51.189 12.239-69.227-.238-4.12-2.85-7.728-6.278-10.819-10.211 19.117-12.803 37.69-30.97 53.341-53.44 37.638-54.037 45.974-115.1585 22.714-147.2999 6.645-4.3267 13.341-7.9917 19.984-10.9508 26.179-11.66121 51.189-12.23927 69.227.2375 4.11 2.8426 7.709 6.26 10.795 10.1799-19.133 12.8051-37.724 30.9832-53.388 53.4713-37.65 54.054-45.979 115.198-22.691 147.331Zm-25.13-201.8693C226.8-1.3994 261.468-6.8319 285.118 9.52681c4.334 2.99749 8.109 6.59609 11.33 10.71229 33.209-21.64543 67.836-27.06055 91.464-10.71229 4.346 3.00759 8.131 6.62029 11.358 10.75389 33.24-21.6801 67.907-27.1126 91.558-10.75389 4.333 2.99749 8.108 6.59609 11.33 10.71229 33.209-21.64544 67.836-27.06055 91.463-10.71229 4.347 3.00759 8.131 6.62019 11.359 10.75369 33.239-21.67992 67.907-27.11237 91.557-10.75369C712.784 20.7645 721.178 40.4502 722 64.1898h-2.003c-.819-23.292-9.057-42.269-24.603-53.022-18.038-12.47677-43.048-11.89871-69.227-.2375-6.643 2.9591-13.339 6.624-19.984 10.9506 23.26 32.1414 14.924 93.2631-22.714 147.3001-15.651 22.47-34.225 40.637-53.341 53.44 3.091 3.933 6.698 7.361 10.819 10.211 18.038 12.477 43.048 11.899 69.227.238 11.435-5.094 23.026-12.279 34.245-21.33v2.559c-36.954 29.287-77.844 38.692-104.616 20.174-4.344-3.005-8.127-6.614-11.353-10.742-33.223 21.67-67.871 27.098-91.51 10.742-4.336-3-8.112-6.602-11.335-10.723-33.225 21.654-67.871 27.074-91.511 10.723-4.344-3.005-8.127-6.614-11.354-10.743-33.223 21.671-67.871 27.099-91.509 10.743-4.336-3-8.113-6.602-11.335-10.723-33.226 21.654-67.872 27.074-91.511 10.723-4.345-3.005-8.127-6.614-11.354-10.743-33.2232 21.671-67.8713 27.099-91.5098 10.743-37.6596-26.057-33.11448-97.537 10.1518-159.654C78.9392 12.7018 144.542-16.5305 182.202 9.52681c4.347 3.00759 8.131 6.62029 11.359 10.75389ZM115.827 222.13c-6.637 4.322-13.324 7.983-19.9593 10.939-26.1702 11.662-51.1716 12.24-69.2034-.237C8.63248 220.356.435682 196.807 2.2488 168.293c1.81034-28.471 13.6089-61.526 35.0688-92.336 21.4599-30.81 48.4076-53.383 74.5384-65.0264 26.17-11.661246 51.171-12.2392 69.203.2373 4.123 2.8528 7.732 6.2843 10.824 10.2217-19.117 12.8027-37.691 30.9657-53.343 53.4294-37.655 54.043-45.9911 115.173-22.713 147.311Zm1.675-1.105c-9.586-13.192-13.742-31.598-12.398-52.732 1.811-28.471 13.614-61.526 35.081-92.3363 15.553-22.3215 33.987-40.3196 52.904-52.9703 9.577 13.1913 13.729 31.5929 12.385 52.7209-1.81 28.4707-13.608 61.5257-35.068 92.3357-15.553 22.328-33.987 40.331-52.904 52.982Zm102.865.02c-9.593-13.193-13.753-31.607-12.409-52.752 1.811-28.471 13.609-61.526 35.069-92.336 15.565-22.347 34.018-40.3606 52.951-53.0135 7.814 10.7369 12.027 24.9333 12.6 41.2463h2.003c-.574-16.6001-4.852-31.218-12.927-42.3513 6.621-4.3081 13.292-7.9586 19.911-10.9079 26.17-11.661246 51.172-12.2392 69.203.2373 4.123 2.8528 7.732 6.2843 10.825 10.2217-19.118 12.8027-37.692 30.9657-53.344 53.4294-37.655 54.043-45.991 115.173-22.713 147.311-6.637 4.322-13.324 7.983-19.959 10.939-26.17 11.662-51.171 12.24-69.203-.237-4.112-2.845-7.713-6.266-10.8-10.191 3.837-2.567 7.652-5.351 11.426-8.342v-2.559c-4.169 3.363-8.389 6.469-12.633 9.305Zm293.92-156.8552c-.573-16.313-4.786-30.5094-12.599-41.2463-18.934 12.6528-37.386 30.6665-52.951 53.0135-21.46 30.81-33.259 63.865-35.069 92.336-1.345 21.145 2.815 39.559 12.408 52.752 4.245-2.836 8.465-5.942 12.634-9.305v2.559c-3.774 2.991-7.59 5.775-11.427 8.342 3.087 3.925 6.688 7.346 10.8 10.191 18.032 12.477 43.033 11.899 69.204.237 6.634-2.956 13.322-6.617 19.959-10.939-23.278-32.138-14.942-93.268 22.713-147.311 15.651-22.4637 34.226-40.6268 53.343-53.4295-3.093-3.9374-6.701-7.3689-10.824-10.2216-18.032-12.4765-43.033-11.898546-69.204-.2373-6.618 2.9493-13.29 6.5998-19.911 10.9079 8.076 11.1333 12.353 25.7512 12.928 42.3513h-2.004Zm-24.602-53.022c4.109 2.8426 7.708 6.26 10.795 10.1799-19.133 12.805-37.725 30.9832-53.388 53.4713-37.65 54.054-45.979 115.198-22.691 147.331-6.63 4.313-13.309 7.968-19.936 10.92-26.179 11.661-51.189 12.239-69.227-.238-4.121-2.85-7.728-6.278-10.82-10.211 19.117-12.803 37.691-30.97 53.342-53.44 37.638-54.037 45.973-115.1585 22.713-147.2999 6.645-4.3267 13.341-7.9917 19.984-10.9508 26.179-11.66121 51.189-12.23927 69.228.2375Zm92.14 156.8752c-15.553 22.328-33.987 40.331-52.904 52.982-9.586-13.192-13.742-31.598-12.398-52.732 1.811-28.471 13.613-61.526 35.081-92.3363 15.552-22.3216 33.987-40.3197 52.904-52.9704 9.577 13.1913 13.729 31.5929 12.385 52.721-1.81 28.4707-13.609 61.5257-35.068 92.3357Zm-258.613 52.982c18.916-12.651 37.351-30.654 52.903-52.982 21.46-30.81 33.259-63.865 35.069-92.3357 1.343-21.128-2.809-39.5296-12.386-52.7209-18.917 12.6507-37.351 30.6488-52.904 52.9703-21.467 30.8103-33.269 63.8653-35.08 92.3363-1.345 21.134 2.812 39.54 12.398 52.732Z" clip-rule="evenodd" opacity=".7"/></svg>